:SAMPLES-PER-SECOND 30
:FULLY-SPECIFIED
:DEGREES
272
root  -3.00509 41.0243 0.674301 5.20425 -87.5753 -2.04138
RightUpLeg  0.569674 -1.10359 -1.35826
RightLeg  -5.65384 -21.7838 2.73682
RightFoot  2.81271 -0.268082 2.27348
RightToes  -3.13588e-008 1.75238e-005 3.56266e-009
Spine  5.44368 -3.3872 -9.63838
Spine1  -8.6396 -4.74514 12.4767
HEad  -8.21862 -11.3156 2.0707
LeftShoulder1  1.98442 -2.69163 -25.8805
LeftArm  17.1953 -3.65062 -44.08
LeftForeArm  63.6542 -77.8647 -51.2395
LeftHand  -0.731056 -3.16324 10.1587
RightShoulder  1.61352 1.98107 23.2883
RightArm  1.35198 -21.0849 38.1344
RightForeArm  19.4789 53.7044 13.7643
RightHand  -0.652489 7.53707 -6.20533
LeftUpLeg  -0.18512 0.753246 2.89345
LeftLeg  -4.50261 13.3357 -1.32517
LeftFoot  2.33453 0.352142 -3.10356
LeftToes  4.76812e-008 1.47286e-008 1.3089e-009
273
root  -3.0144 41.0247 0.646583 3.52997 -86.4784 -0.283142
RightUpLeg  0.681716 -1.21165 -1.39617
RightLeg  -5.81125 -22.7374 2.92571
RightFoot  2.74446 -0.261501 2.18195
RightToes  -3.13588e-008 1.75238e-005 3.56266e-009
Spine  5.68185 -3.46866 -9.92756
Spine1  -9.38083 -4.77414 12.6868
HEad  -8.00261 -11.8343 2.42445
LeftShoulder1  2.02893 -2.91011 -25.4755
LeftArm  13.8165 -11.8623 -46.5882
LeftForeArm  77.7943 -79.5487 -65.168
LeftHand  -0.764969 -3.57993 10.1421
RightShoulder  1.62679 2.01728 23.3366
RightArm  1.4198 -22.1779 38.0745
RightForeArm  19.3835 53.8951 13.8798
RightHand  -0.613527 7.33339 -5.94224
LeftUpLeg  -0.428583 0.667573 2.85935
LeftLeg  -4.46758 12.3596 -1.24558
LeftFoot  2.45832 0.347037 -3.01139
LeftToes  4.76812e-008 1.47286e-008 1.3089e-009
274
root  -3.02725 41.025 0.623771 2.94733 -85.5653 0.351471
RightUpLeg  0.87135 -1.24941 -1.39078
RightLeg  -6.10851 -23.6061 3.11374
RightFoot  2.75045 -0.259529 2.15987
RightToes  -3.13588e-008 1.75238e-005 3.56266e-009
Spine  6.45139 -3.46566 -10.211
Spine1  -10.7403 -4.6959 12.9747
HEad  -7.57638 -12.4569 2.68973
LeftShoulder1  2.12637 -3.34038 -24.8828
LeftArm  11.148 -20.174 -49.3702
LeftForeArm  87.6613 -80.1631 -75.0935
LeftHand  -0.856549 -3.79562 11.0707
RightShoulder  1.56217 1.8274 23.1696
RightArm  1.62189 -23.3023 38.3883
RightForeArm  19.3301 54.0463 13.973
RightHand  -0.653833 7.29885 -6.3232
LeftUpLeg  -0.624541 0.584898 2.82827
LeftLeg  -4.3943 11.5708 -1.1384
LeftFoot  2.54323 0.341906 -2.92291
LeftToes  4.76812e-008 1.47286e-008 1.3089e-009
275
root  -3.04891 41.0254 0.610183 2.10788 -85.3578 1.33823
RightUpLeg  0.712512 -1.25347 -1.43601
RightLeg  -5.99158 -23.7995 3.05127
RightFoot  2.661 -0.259228 2.16289
RightToes  -3.13588e-008 1.75238e-005 3.56266e-009
Spine  6.69163 -3.33715 -10.7769
Spine1  -11.3821 -4.57552 13.705
HEad  -7.56546 -12.6616 3.02933
LeftShoulder1  2.07552 -3.26332 -24.4536
LeftArm  9.46843 -27.8118 -52.0025
LeftForeArm  95.7506 -80.4226 -83.0986
LeftHand  -0.90957 -4.06667 11.4194
RightShoulder  1.5817 1.93599 22.9271
RightArm  1.32639 -24.4535 38.6448
RightForeArm  20.0982 54.7322 14.2944
RightHand  -0.611932 7.19102 -5.99093
LeftUpLeg  -0.683019 0.51521 2.76717
LeftLeg  -4.59331 11.4501 -1.17992
LeftFoot  2.62612 0.342477 -2.9284
LeftToes  4.76812e-008 1.47286e-008 1.3089e-009
276
root  -3.09346 41.0256 0.602789 1.96265 -85.1584 1.60477
RightUpLeg  0.709923 -1.28824 -1.45917
RightLeg  -6.07338 -23.9893 3.12587
RightFoot  2.6243 -0.26558 2.26953
RightToes  -3.13588e-008 1.75238e-005 3.56266e-009
Spine  6.70218 -3.3487 -11.1097
Spine1  -11.7378 -4.58739 14.244
HEad  -7.7488 -12.2391 3.06794
LeftShoulder1  1.81507 -2.63146 -23.3219
LeftArm  9.24809 -34.1727 -54.5848
LeftForeArm  102.953 -80.4912 -90.3615
LeftHand  -0.867307 -4.17882 10.781
RightShoulder  1.59823 2.03485 22.6871
RightArm  1.37807 -24.6222 39.0493
RightForeArm  20.0567 54.2939 14.0454
RightHand  -0.591987 7.49521 -5.68188
LeftUpLeg  -0.761224 0.497672 2.76226
LeftLeg  -4.61469 11.2815 -1.18473
LeftFoot  2.6112 0.342397 -2.93015
LeftToes  4.76812e-008 1.47286e-008 1.3089e-009
277
root  -3.13578 41.0257 0.598835 2.01639 -85.2495 1.61401
RightUpLeg  0.735618 -1.28606 -1.44433
RightLeg  -6.1414 -23.8933 3.15649
RightFoot  2.61107 -0.259727 2.18842
RightToes  -3.13588e-008 1.75238e-005 3.56266e-009
Spine  6.7087 -3.28023 -10.8866
Spine1  -12.0306 -4.44923 13.8996
HEad  -8.10172 -11.9111 3.26619
LeftShoulder1  1.68634 -2.35703 -22.4656
LeftArm  9.87308 -39.0079 -56.0703
LeftForeArm  108.464 -80.4462 -95.8121
LeftHand  -0.849714 -4.10136 10.6471
RightShoulder  1.65224 2.15491 23.0518
RightArm  1.56724 -25.0949 38.9484
RightForeArm  19.9555 54.5705 14.2125
RightHand  -0.586544 7.22065 -5.74277
LeftUpLeg  -0.736288 0.522442 2.78804
LeftLeg  -4.63975 11.328 -1.21173
LeftFoot  2.58379 0.339877 -2.9015
LeftToes  4.76812e-008 1.47286e-008 1.3089e-009
278
root  -3.17622 41.0255 0.595171 2.09998 -85.6141 1.54318
RightUpLeg  0.755332 -1.24387 -1.419
RightLeg  -6.1547 -23.5897 3.11862
RightFoot  2.58131 -0.262091 2.23763
RightToes  -3.13588e-008 1.75238e-005 3.56266e-009
Spine  6.63146 -3.09424 -10.728
Spine1  -12.1691 -4.22805 13.7739
HEad  -8.01047 -11.9631 3.0578
LeftShoulder1  1.62086 -2.21011 -22.0229
LeftArm  10.7083 -42.169 -56.7863
LeftForeArm  111.939 -80.3925 -99.0116
LeftHand  -0.813011 -4.28682 10.0446
RightShoulder  1.61488 2.07607 22.7802
RightArm  1.70527 -25.1463 39.4244
RightForeArm  20.6924 54.1193 13.893
RightHand  -0.586887 7.41369 -5.66929
LeftUpLeg  -0.585112 0.581103 2.82397
LeftLeg  -4.74766 11.5893 -1.27564
LeftFoot  2.57062 0.336183 -2.88306
LeftToes  4.76812e-008 1.47286e-008 1.3089e-009
